<svg width="16px" height="16px" version="1.1" id="Layer_1" xmlns="http://www.w3.org/2000/svg" xmlns:xlink="http://www.w3.org/1999/xlink" x="0px" y="0px"
	 viewBox="0 0 17 17.3" style="enable-background:new 0 0 17 17.3;" xml:space="preserve">
<path d="M8,0L0,5h5.5c0,0.1-0.1,0.1-0.1,0.2c0,0.2-0.1,0.5-0.1,0.8C5.3,9.6,9,9.2,9,9.2v0.9c0,0.4,0.5,0.2,0.5,1
	c-0.2,0-5.1-0.1-5.1,3.1c0,3.3,4.2,3.1,4.2,3.1s4.9,0.2,4.9-3.8c0-2.4-2.8-3.2-2.8-4.2c0-1,2.1-1.3,2.1-3.6c0-1-0.1-1.7-0.5-2.2
	c0,0-0.1-0.1-0.1-0.1c0,0,0,0,0,0h0.1l2.1-1.6V4c0,0,0,0.1,0,0.1C14.2,4.3,14,4.6,14,5v1c0,0.6,0.4,1,1,1c0.6,0,1-0.4,1-1
	c0,0,0,0,0,0V5c0-0.4-0.2-0.7-0.5-0.9c0,0,0-0.1,0-0.1V1.1L17,0H8z M8.7,3.1C9,3,9.3,3.1,9.5,3.3c0.2,0.1,0.4,0.3,0.6,0.4
	c0.4,0.4,0.7,0.9,0.8,1.5c0.4,1.5-0.1,2.8-1.1,3.1c-1,0.3-2.1-0.7-2.5-2.1c-0.2-0.7-0.1-1.4,0-1.9c0,0,0,0,0,0c0,0,0,0,0,0
	C7.4,4,7.5,3.8,7.6,3.7c0.2-0.3,0.5-0.5,0.8-0.6C8.5,3.1,8.6,3.1,8.7,3.1z M9.1,11.7c1.7-0.1,3.1,0.8,3.2,2.1
	c0.1,1.3-1.2,2.4-2.9,2.5c-1.7,0.1-3.2-0.8-3.2-2.1C6.1,12.9,7.4,11.8,9.1,11.7z"/>
</svg>
